<?xml version="1.0" standalone="no"?>
<!DOCTYPE svg PUBLIC "-//W3C//DTD SVG 20010904//EN"
 "http://www.w3.org/TR/2001/REC-SVG-20010904/DTD/svg10.dtd">
<svg version="1.0" xmlns="http://www.w3.org/2000/svg"
 width="2730.000000pt" height="1344.000000pt" viewBox="0 0 2730.000000 1344.000000"
 preserveAspectRatio="xMidYMid meet">
<metadata>
Created by potrace 1.15, written by Peter Selinger 2001-2017
</metadata>
<g transform="translate(0.000000,1344.000000) scale(0.100000,-0.100000)"
fill="#000000" stroke="none">
<path d="M4922 13425 c-175 -49 -316 -165 -397 -326 -51 -100 -68 -178 -68
-299 2 -183 57 -314 188 -445 134 -135 283 -192 475 -182 113 6 201 32 288 84
230 140 350 411 298 673 -21 107 -80 228 -147 303 -62 69 -176 147 -260 177
-83 29 -295 38 -377 15z"/>
<path d="M2880 12234 c-423 -22 -799 -117 -1169 -295 -335 -162 -589 -346
-856 -620 -473 -486 -760 -1096 -839 -1779 -20 -171 -21 -502 -1 -676 78 -700
383 -1332 879 -1826 l117 -116 -44 -59 c-174 -231 -258 -506 -244 -803 15
-317 129 -581 351 -808 213 -218 468 -337 786 -367 71 -6 598 54 700 80 191
49 469 66 675 41 846 -101 1525 -720 1709 -1556 216 -986 -355 -1991 -1314
-2310 -612 -205 -1283 -90 -1805 309 -82 62 -255 231 -326 317 -216 265 -363
586 -425 934 -15 83 -19 153 -19 335 1 265 15 367 86 596 37 119 42 146 42
234 1 122 -22 198 -90 297 -215 319 -699 292 -881 -49 -59 -111 -133 -388
-173 -653 -19 -123 -23 -187 -23 -420 -1 -295 10 -415 60 -650 192 -900 786
-1670 1605 -2080 288 -145 596 -241 934 -292 144 -21 699 -18 840 5 558 92
1014 292 1445 636 126 100 356 331 459 461 218 274 391 588 502 910 236 680
220 1444 -43 2117 -52 135 -175 378 -253 503 -336 539 -859 974 -1453 1209
-530 211 -1145 261 -1720 141 -51 -11 -181 -31 -288 -45 l-196 -26 -44 22
c-68 33 -99 85 -99 170 0 60 3 71 31 106 46 57 83 74 176 82 72 6 93 4 173
-20 555 -165 1157 -166 1707 -4 662 196 1239 617 1630 1190 273 399 440 835
508 1325 32 227 30 599 -5 837 -186 1268 -1141 2287 -2381 2538 -210 43 -528
69 -724 59z m318 -1055 c679 -74 1261 -478 1566 -1086 200 -401 261 -845 175
-1278 -189 -953 -1039 -1636 -1994 -1602 -289 10 -518 66 -770 186 -426 204
-747 525 -949 951 -327 689 -229 1498 253 2103 408 512 1081 796 1719 726z"/>
<path d="M9515 12199 c-739 -71 -1369 -399 -1805 -940 -301 -374 -517 -843
-619 -1347 -58 -282 -65 -368 -66 -722 0 -348 7 -419 61 -694 261 -1312 1291
-2201 2624 -2265 801 -38 1584 215 2201 713 158 127 219 221 241 375 37 251
-104 453 -341 492 -136 22 -253 -19 -482 -168 -253 -164 -366 -225 -568 -308
-748 -305 -1512 -203 -2009 270 -311 295 -468 653 -497 1127 -4 64 -5 128 -1
142 l6 26 1908 2 c1771 3 1911 4 1964 20 181 55 270 148 309 323 29 130 8 474
-47 775 -166 908 -562 1494 -1264 1872 -283 153 -662 265 -1022 303 -157 16
-444 18 -593 4z m420 -970 c756 -65 1232 -523 1340 -1289 8 -58 15 -115 15
-127 l0 -23 -1515 0 -1515 0 6 28 c48 200 117 399 199 567 246 508 638 794
1158 844 120 12 178 12 312 0z"/>
<path d="M15920 12195 c-274 -38 -647 -177 -910 -340 -106 -66 -298 -208 -377
-279 l-52 -47 -24 43 c-14 24 -33 70 -42 103 -26 95 -81 199 -135 258 -96 105
-191 141 -370 141 -63 0 -142 -6 -175 -13 -180 -39 -338 -182 -403 -365 l-25
-71 -2 -2430 c-1 -2051 1 -2442 12 -2505 17 -91 68 -198 123 -262 49 -57 154
-127 235 -158 83 -32 253 -39 345 -15 142 37 281 133 350 242 38 59 76 177 85
263 4 36 8 767 9 1625 3 1547 3 1561 24 1671 58 300 177 537 368 734 247 254
570 400 982 440 268 27 522 -38 717 -185 205 -153 364 -375 438 -610 62 -198
59 -111 61 -2010 1 -1612 2 -1734 18 -1788 59 -195 199 -334 385 -382 73 -19
220 -19 300 0 213 50 372 212 429 435 38 150 41 2275 4 3087 -21 454 -64 831
-119 1045 -113 436 -358 789 -712 1026 -267 179 -638 315 -954 352 -123 14
-469 11 -585 -5z"/>
<path d="M19625 12191 c-184 -53 -300 -184 -356 -402 -20 -79 -22 -117 -29
-654 -10 -720 -10 -2355 -1 -3460 l8 -850 26 -99 c40 -149 88 -237 177 -326
116 -117 218 -160 375 -160 155 0 272 48 380 155 83 82 135 175 166 292 20 77
20 100 19 2565 -1 2163 -3 2494 -16 2545 -65 258 -288 414 -588 412 -64 0
-123 -7 -161 -18z"/>
<path d="M23802 12194 c-533 -58 -1010 -250 -1397 -561 -684 -550 -1099 -1547
-1061 -2550 43 -1154 595 -2072 1526 -2540 374 -187 782 -286 1235 -300 777
-23 1536 232 2138 720 109 87 174 167 208 255 20 48 23 76 23 182 1 108 -2
133 -22 182 -49 122 -173 216 -313 240 -138 22 -261 -21 -495 -175 -314 -206
-576 -327 -868 -402 -393 -100 -756 -95 -1098 15 -127 41 -333 146 -448 227
-194 139 -366 342 -474 558 -113 226 -163 430 -173 698 l-6 167 1889 0 c2067
0 1958 -3 2090 59 218 102 269 346 188 901 -148 1017 -581 1674 -1349 2051
-88 43 -204 94 -259 114 -220 81 -493 141 -746 164 -153 14 -435 12 -588 -5z
m519 -969 c370 -43 637 -163 864 -390 244 -243 389 -581 428 -997 l3 -38
-1513 0 c-1300 0 -1513 2 -1513 14 0 22 67 250 99 341 100 279 235 502 408
679 309 315 728 449 1224 391z"/>
<path d="M8320 4845 l0 -955 99 0 99 0 4 428 c4 406 5 430 26 492 59 177 213
278 405 268 194 -10 313 -130 337 -339 6 -46 10 -256 10 -466 l0 -383 100 0
100 0 0 476 c0 530 -1 541 -67 667 -60 114 -177 200 -312 228 -86 18 -273 7
-343 -20 -76 -29 -168 -98 -215 -161 l-38 -51 -3 386 -2 385 -100 0 -100 0 0
-955z"/>
<path d="M24980 4845 l0 -955 100 0 100 0 0 955 0 955 -100 0 -100 0 0 -955z"/>
<path d="M18510 5645 l0 -115 115 0 115 0 0 115 0 115 -115 0 -115 0 0 -115z"/>
<path d="M10282 5250 c-196 -52 -362 -190 -448 -377 -53 -112 -66 -187 -62
-338 3 -114 8 -141 34 -216 71 -202 224 -354 426 -427 67 -24 86 -26 233 -27
154 0 163 1 246 31 403 144 583 602 392 994 -39 80 -60 109 -132 180 -98 98
-185 149 -307 180 -104 27 -280 27 -382 0z m345 -191 c206 -77 334 -266 334
-494 0 -155 -42 -266 -140 -368 -97 -102 -205 -149 -346 -149 -140 0 -253 50
-353 156 -270 286 -131 787 242 872 79 18 187 11 263 -17z"/>
<path d="M11995 5242 c-100 -34 -199 -103 -268 -187 l-52 -64 -3 125 -3 124
-99 0 -100 0 0 -885 0 -885 100 0 100 0 0 331 0 331 46 -55 c80 -97 194 -172
311 -202 74 -19 251 -19 323 0 171 45 331 177 408 335 53 108 71 179 79 307
19 319 -125 582 -383 700 -89 41 -151 53 -269 53 -93 0 -122 -5 -190 -28z
m290 -179 c208 -64 337 -254 336 -498 0 -110 -16 -187 -57 -268 -78 -156 -227
-247 -404 -249 -93 0 -165 19 -245 67 -284 168 -331 588 -94 826 125 125 302
172 464 122z"/>
<path d="M14230 5254 c-92 -24 -196 -81 -265 -146 -128 -119 -192 -258 -202
-438 -17 -299 139 -541 417 -646 69 -25 87 -28 215 -28 112 -1 151 3 195 18
103 35 173 79 259 163 l84 83 -7 -125 c-10 -184 -45 -283 -131 -368 -85 -85
-206 -127 -365 -127 -154 0 -310 46 -443 129 -35 23 -67 41 -70 41 -3 0 -26
-37 -52 -82 l-47 -81 23 -18 c43 -32 202 -107 274 -128 124 -36 199 -44 363
-39 134 4 169 9 237 31 168 55 278 148 346 292 68 142 69 160 69 845 l0 610
-105 0 -105 0 0 -108 0 -107 -75 72 c-82 79 -196 142 -293 162 -74 15 -256 13
-322 -5z m315 -179 c358 -75 507 -476 272 -733 -146 -159 -400 -212 -582 -120
-166 84 -256 229 -256 413 0 223 136 393 354 440 82 18 127 18 212 0z"/>
<path d="M15935 5263 c-244 -54 -429 -241 -495 -498 -28 -108 -28 -291 0 -401
34 -135 81 -217 179 -314 149 -148 277 -195 511 -188 113 4 147 9 208 30 97
35 170 80 251 154 l66 62 -20 22 c-11 12 -41 40 -67 62 l-48 40 -52 -47 c-64
-57 -117 -89 -194 -115 -124 -43 -269 -36 -384 18 -68 32 -168 130 -203 198
-25 49 -57 155 -57 188 0 14 50 16 535 16 l535 0 0 53 c0 153 -45 331 -111
444 -75 125 -215 231 -355 268 -55 14 -248 20 -299 8z m237 -184 c103 -23 208
-118 260 -235 26 -60 48 -139 48 -176 l0 -28 -425 0 c-384 0 -425 2 -425 16 0
34 33 140 60 194 42 84 120 164 194 200 98 49 167 55 288 29z"/>
<path d="M17471 5254 c-102 -27 -213 -107 -279 -199 l-21 -30 -1 108 0 107
-100 0 -100 0 0 -675 0 -675 99 0 99 0 4 428 c4 406 5 430 26 492 59 177 213
278 405 268 194 -10 313 -130 337 -339 6 -46 10 -256 10 -466 l0 -383 100 0
100 0 0 476 c0 530 -1 541 -67 667 -58 110 -160 188 -290 222 -73 19 -250 19
-322 -1z"/>
<path d="M19555 5263 c-244 -54 -429 -241 -495 -498 -28 -108 -28 -291 0 -401
34 -135 81 -217 179 -314 149 -148 277 -195 511 -188 113 4 147 9 208 30 97
35 170 80 251 154 l66 62 -20 22 c-11 12 -41 40 -67 62 l-48 40 -52 -47 c-64
-57 -117 -89 -194 -115 -124 -43 -269 -36 -384 18 -68 32 -168 130 -203 198
-25 49 -57 155 -57 188 0 14 50 16 535 16 l535 0 0 53 c0 153 -45 331 -111
444 -75 125 -215 231 -355 268 -55 14 -248 20 -299 8z m237 -184 c103 -23 208
-118 260 -235 26 -60 48 -139 48 -176 l0 -28 -425 0 c-384 0 -425 2 -425 16 0
34 33 140 60 194 42 84 120 164 194 200 98 49 167 55 288 29z"/>
<path d="M21022 5250 c-196 -52 -362 -190 -448 -377 -53 -112 -66 -187 -62
-338 3 -114 8 -141 34 -216 71 -202 224 -354 426 -427 67 -24 86 -26 233 -27
154 0 163 1 246 31 403 144 583 602 392 994 -39 80 -60 109 -132 180 -98 98
-185 149 -307 180 -104 27 -280 27 -382 0z m345 -191 c206 -77 334 -266 334
-494 0 -155 -42 -266 -140 -368 -97 -102 -205 -149 -346 -149 -140 0 -253 50
-353 156 -270 286 -131 787 242 872 79 18 187 11 263 -17z"/>
<path d="M7343 5245 c-123 -34 -222 -114 -269 -218 -24 -53 -28 -75 -28 -152
-1 -79 2 -97 27 -147 53 -108 150 -166 403 -242 173 -52 211 -67 265 -103 132
-87 99 -264 -60 -324 -69 -26 -189 -28 -282 -5 -77 20 -205 78 -267 123 -25
17 -48 30 -52 28 -3 -2 -28 -35 -54 -74 -57 -83 -58 -81 45 -142 147 -88 297
-129 468 -129 167 0 276 37 372 127 76 71 103 136 107 260 4 92 2 107 -21 156
-53 117 -147 175 -430 267 -253 83 -319 128 -319 222 0 133 135 212 321 186
85 -11 213 -55 285 -97 l50 -30 49 81 c37 63 45 83 35 90 -42 28 -154 79 -228
103 -72 24 -106 28 -225 31 -102 3 -154 0 -192 -11z"/>
<path d="M23993 5245 c-123 -34 -222 -114 -269 -218 -24 -53 -28 -75 -28 -152
-1 -79 2 -97 27 -147 53 -108 150 -166 403 -242 173 -52 211 -67 265 -103 132
-87 99 -264 -60 -324 -69 -26 -189 -28 -282 -5 -77 20 -205 78 -267 123 -25
17 -48 30 -52 28 -3 -2 -28 -35 -54 -74 -57 -83 -58 -81 45 -142 147 -88 297
-129 468 -129 167 0 276 37 372 127 76 71 103 136 107 260 4 92 2 107 -21 156
-53 117 -147 175 -430 267 -253 83 -319 128 -319 222 0 133 135 212 321 186
85 -11 213 -55 285 -97 l50 -30 49 81 c37 63 45 83 35 90 -42 28 -154 79 -228
103 -72 24 -106 28 -225 31 -102 3 -154 0 -192 -11z"/>
<path d="M18520 4565 l0 -675 100 0 100 0 0 675 0 675 -100 0 -100 0 0 -675z"/>
<path d="M22180 4764 c0 -530 1 -541 67 -667 60 -114 177 -200 312 -228 86
-18 273 -7 343 20 74 29 166 98 214 162 l39 50 3 -105 3 -106 99 0 100 0 0
675 0 675 -100 0 -100 0 0 -377 c0 -208 -5 -412 -10 -452 -30 -230 -197 -371
-424 -359 -193 10 -312 130 -336 339 -6 46 -10 256 -10 467 l0 382 -100 0
-100 0 0 -476z"/>
<path d="M25450 5232 c0 -5 131 -296 291 -648 160 -351 296 -653 301 -670 9
-27 6 -40 -27 -103 -85 -161 -216 -208 -389 -140 -27 11 -52 16 -57 12 -6 -7
-69 -150 -69 -158 0 -6 107 -45 152 -56 28 -6 94 -9 160 -7 134 5 182 23 258
94 72 68 129 165 208 359 131 319 532 1314 532 1320 0 3 -51 5 -112 5 l-113 0
-210 -550 c-115 -303 -212 -550 -215 -550 -3 0 -112 247 -242 548 l-237 547
-116 3 c-63 1 -115 -1 -115 -6z"/>
<path d="M26447 4064 c-4 -4 -7 -16 -7 -26 0 -15 8 -18 55 -18 l55 0 0 -138
c0 -151 8 -180 48 -168 21 7 22 12 22 156 l0 149 58 3 c49 3 57 6 57 23 0 19
-8 20 -141 23 -77 1 -143 -1 -147 -4z"/>
<path d="M26822 4058 c-8 -8 -12 -62 -12 -175 0 -142 2 -164 16 -170 38 -14
49 9 54 121 l5 108 55 -112 c50 -101 57 -111 80 -108 21 3 34 21 82 118 l56
115 1 -111 c1 -120 10 -142 51 -129 19 6 20 14 20 169 0 179 -4 190 -57 184
-25 -3 -35 -16 -88 -120 -33 -65 -62 -118 -65 -118 -3 0 -30 50 -60 111 -30
61 -63 115 -72 120 -23 13 -52 11 -66 -3z"/>
</g>
</svg>
